<svg version="1.1" xmlns="http://www.w3.org/2000/svg" viewBox="0 0 635.2908334803022 480.6381388646364">
  <defs>
    <style>
      @font-face {
        font-family: "Virgil";
        src: url("https://excalidraw.com/FG_Virgil.ttf");
      }
      @font-face {
        font-family: "Cascadia";
        src: url("https://excalidraw.com/Cascadia.ttf");
      }
    </style>
  </defs>
  <rect x="0" y="0" width="635.2908334803022" height="480.6381388646364" fill="#ffffff"></rect><g transform="translate(98.29083348030224 12.638138864636403)"><path d="M-1.399880040436983 -1.6094319336116314 C38.04071396179498 2.9719874929264187, 79.42553327530624 -0.2352551151439548, 166.75843645259738 -1.513996671885252 M0.4524479750543833 0.11620385013520718 C64.56925672069193 0.13548653233796348, 130.20787981264294 -0.2768137563392521, 165.47423138655722 0.6232605036348104 M164.30025793239474 -0.24934537336230278 C166.58649450793862 33.038197389990096, 166.19310349479318 70.33250361159445, 167.5415936820209 142.26862483099103 M165.45398440398276 -0.7188353482633829 C165.3023817104846 48.0762945201248, 166.58148135371505 98.37753362618388, 165.05611487664282 143.72121042571962 M165.1640120856464 142.02738623693585 C107.0566085960716 142.0324890248105, 50.1627175271511 140.9761176935956, 1.8710575215518475 145.81762282922864 M165.8791143540293 144.7289833482355 C129.6410082012415 144.67637602146715, 91.15921346507966 145.24412105139345, -0.9920580144971609 144.36758220754564 M1.9852056615054607 143.86248653009534 C-2.63495479747653 106.90521543994547, -2.2452571265399457 69.12682694867253, -1.2913800366222858 -0.2057477943599224 M-0.7891909833997488 144.96204031072557 C0.03374711640179173 98.13083620928228, -0.07851447694003566 53.44429115019739, -0.740050470456481 -0.9762594047933817" style="stroke: rgb(0, 0, 0); stroke-width: 1px; fill: none;"></path></g><g transform="translate(434.29083348030224 46.6381388646364)"><path d="M0.2224629092091348 71.74408569746733 C0.2224629092091348 71.74408569746733, 0.2224629092091348 71.74408569746733, 0.2224629092091348 71.74408569746733 M0.2224629092091348 71.74408569746733 C0.2224629092091348 71.74408569746733, 0.2224629092091348 71.74408569746733, 0.2224629092091348 71.74408569746733 M5.93002695960547 78.12765914344263 C15.510252969085068 68.04563015677789, 23.96474931142997 58.392780707781704, 28.6165011285372 49.85864234991321 M5.865235123760954 76.56095109277439 C11.63251464180804 69.97629786014674, 16.963555399458397 64.38221458801524, 30.053883431715512 49.739799070134254 M14.601455711280252 79.84413002039418 C27.91704189612352 64.74206436359282, 41.144713388514596 49.10713692017233, 60.25796837601868 24.619816996071506 M13.125151262139227 81.15206553395018 C31.191134723840875 59.5953156675237, 50.789137252403314 39.01834072323706, 61.836656364240326 25.46769644311445 M17.85685357916598 84.33380951550976 C40.80584780535104 61.3437929939134, 60.11444918492423 38.885356817838165, 91.8442445834611 3.2542979166438712 M20.352482256474538 86.82569187698141 C46.30633018796462 53.761338319061295, 72.68130686216824 24.733787272885706, 92.12908048084718 4.567900639825119 M25.34240762802213 92.0725986152622 C50.05731218277106 62.28613262253404, 78.4999598951151 30.130945473110152, 99.82412094590873 4.144898504786227 M25.056452280901368 90.7220377489659 C42.140221140562474 73.70095133138494, 57.18210233783253 53.86756222474802, 101.14142158595533 3.564094194047186 M31.781857009579717 93.9128945654559 C57.29523964359943 70.07567070962126, 80.33544219666256 39.23030676720867, 106.65112831086476 9.79661108095651 M31.784775096525728 94.77186953633307 C62.584213940890294 62.26629239159138, 90.38222918895399 28.98341264522213, 108.79962263644298 9.766201066863587 M37.88407975960775 102.86655793278646 C57.4028344265768 77.189949289351, 79.7986749189663 53.79442682554918, 114.45487388804123 12.95866373051362 M38.78124084849163 101.7294794464035 C61.815330862578776 74.77875285152035, 84.88714909707306 47.744834471476274, 114.16664045139716 13.642443484258223 M45.09156502983721 106.5672359630583 C72.89904856744279 74.24531370845023, 100.0690461335604 40.87408817681575, 119.66222182916914 20.03032869926203 M44.48418829790505 105.88500886560661 C74.52366666596002 71.58796211185214, 103.94726973955332 35.52700433471628, 119.81362629192387 18.47515033266056 M52.487999885027634 111.0533296427442 C75.14465974819204 83.35472198861612, 96.50893524006653 57.86450870232626, 125.18517517001749 23.070341553897265 M52.184091618900524 109.0974154210402 C78.54708343116609 79.28201048522011, 107.18094548677855 46.92294267857698, 125.75780780316711 24.620176319391135 M56.266446389938466 117.00386495831694 C75.79106131349269 93.71118734668408, 93.95806968321253 73.3347563238463, 135.16934806231725 28.25922454022379 M57.241737485612504 115.28034423980202 C79.04114618012687 91.44024043199892, 99.06720402508842 65.79476703317366, 133.96096124623287 28.219225330879404 M65.19751869630073 119.97436415558099 C94.23444618049702 88.93693814994863, 121.07761060412759 55.47308809990963, 139.24549354183748 32.436963224937166 M64.30640215914701 118.88799920832156 C79.30162170988623 101.70949062572059, 94.67535532732542 83.51674063896604, 138.33093926626518 33.98752707444593 M70.19302886887398 125.42510322100907 C89.1711412673211 100.9689333561434, 109.08066873775816 79.73309987669687, 147.27797576030915 39.56532985384182 M70.6294973136386 124.19340045369654 C97.48873196023985 92.67980047204533, 124.93614920741942 62.01888840952077, 145.22014312437003 37.926160436520135 M75.77416397241763 128.956983141074 C107.83739973669809 98.79858868332371, 133.1420644065685 64.53666531926402, 153.61629775350121 45.26555999363332 M77.28274712322167 129.77425560302478 C99.94291506591216 103.60999911320013, 121.64362276571507 78.29433303624296, 151.42705046569137 44.1097301244226 M83.53966315866272 132.54740116158024 C113.43628147558968 99.16950000915693, 140.41169281867673 66.3485627152288, 159.84357367314476 49.2806758901161 M84.37636534900228 132.99883104273573 C102.1381772740425 111.59003363251489, 122.68130078751135 88.81237982713328, 158.69468755133528 47.39869002458275 M89.72946349236875 139.5785082690005 C112.24254688281809 113.54807591603264, 131.86469634171573 89.05365878708272, 163.02805655500873 52.01316310998571 M90.37270116511493 139.30420939992712 C106.02738546363167 119.20852320760841, 121.86856551152287 103.13543592860107, 165.7121570264457 52.227019844321134 M96.69287703829522 143.0730804498076 C111.06410814356778 126.52595039310111, 128.13855216717303 104.93456930317713, 170.47161055082412 58.98729389904661 M97.30441624569411 142.68216080169674 C119.78874229303158 117.30757296965882, 142.90555029960424 93.03230712539181, 170.61311015212866 57.314548470067216 M127.9748929918314 122.76084506178623 C147.03130575877213 98.85928866574415, 166.46198497230085 77.10659483459006, 175.96123869635997 61.38680382399436 M127.61078689550409 120.99546924645429 C146.62696258947892 97.94444560463995, 166.22642172459823 76.89834905369705, 176.97727457352815 62.45463060914155 M159.0254483740785 97.61537297942891 C166.0054700509357 86.39140753982382, 179.2838890011946 73.19421339982314, 182.51755514334727 68.51721513063339 M156.5969747450211 98.76482474931731 C164.31296431270994 89.5352370399715, 172.30197650910029 80.75125755915656, 184.3289265517502 67.22647014797357 M187.76530427480853 75.69522858627221 C188.43945649017303 74.7561185325795, 189.92702350387324 73.1714008393436, 191.00660880296266 71.80561720954952 M187.51145395445442 75.586414773316 C188.71251102611137 74.22267044045637, 190.12232792357364 72.87672320570782, 190.8796352540586 71.66543806160567 M-0.1783002042262538 71.8450059971162 C-0.1783002042262538 71.8450059971162, -0.1783002042262538 71.8450059971162, -0.1783002042262538 71.8450059971162 M-0.1783002042262538 71.8450059971162 C-0.1783002042262538 71.8450059971162, -0.1783002042262538 71.8450059971162, -0.1783002042262538 71.8450059971162 M81.96928887199492 134.20755416847635 C59.62163137386624 112.81357409603052, 39.675955012766494 94.92488961883785, 6.659964818070986 66.83493765019344 M82.53168786447377 131.7693201149242 C64.44579469816122 117.89307433038861, 48.50953212873548 104.23093297527421, 6.8328219461546915 66.82136737876104 M99.789387287866 136.32590845865022 C79.39555696599365 119.08771978235112, 59.346516524612355 102.32458656935873, 12.69541501399894 61.15038563148627 M100.95352592534913 138.46207840633403 C78.54983342620231 121.04192568264904, 57.172805809109 101.3361891525121, 13.852175788551762 63.14973407076249 M105.81861189785646 134.12609765088055 C87.05333349541172 113.61235011594314, 65.47078001757276 94.95046714543992, 18.569890370915058 58.97946757695266 M107.43595349821494 132.82248855536673 C87.73836986719289 115.98157495621304, 67.11436825725644 97.88742908611255, 19.06372709418309 56.9719364481289 M113.25797749905786 128.84207358627495 C95.72355744933715 112.75827543980293, 79.08725442793032 98.94739049285981, 26.65755614301488 51.79299295082362 M113.5508349895378 129.3659965437549 C87.71528020811887 107.88402956342469, 63.02578010079701 86.52985427984862, 26.360928226619215 53.26684061571629 M118.84252060499742 123.3514686420929 C94.41540805250737 103.50440546019874, 74.09848281022938 81.60283823800134, 34.17782384382564 47.73421913035864 M119.61499402221992 123.41579138938303 C102.06613111368746 107.30447837495451, 85.29702077718832 93.67845588445266, 33.443415308762376 47.09982309140915 M126.68078146987067 117.14071728256543 C106.37642041365112 103.45182808341106, 91.24193936327774 87.70474436159944, 37.71418956709735 44.743087521807716 M126.27969545983181 118.31792669710715 C97.82171593995918 93.47148582911754, 70.70700298244937 70.24493701520828, 40.085846543737574 42.99700692208247 M133.22654660720488 112.868701884952 C111.6563732312354 96.04196390047247, 88.78550950593817 77.33110216026054, 45.204814826357214 35.74410550243036 M133.25238792527577 114.25496648481172 C112.50009272965289 96.4455509815133, 91.56420586099166 78.71924088328669, 45.878483054447024 38.38314362562076 M139.79768711075002 109.49098885550265 C116.5741014292979 88.16204420907947, 92.09580743550515 65.60947122539835, 52.46136487580079 33.77058253645757 M139.56554212167674 109.62022129937176 C120.1535203754525 92.92759904394386, 101.57544257716901 75.55446030027781, 52.49602720446128 32.955849306880026 M144.5667394940333 103.44771057147685 C115.57267477834179 79.49590293885365, 89.2395634845795 55.859962048962124, 60.1407512289553 26.52827600114884 M145.31723167193695 102.45563015867177 C118.77838274175328 79.28194372906668, 90.7627339766401 55.30413682185577, 58.41936511668256 27.49925048374476 M151.07974401125034 97.78780149710562 C124.89835828798965 74.35341472815036, 96.08363676630871 47.784284209119846, 65.509260399348 20.86356827376366 M151.93997143962702 97.82599666756775 C129.83646054167946 78.19170132377096, 105.81870479268729 58.69563541646873, 64.44969541401312 22.60216117409945 M161.2279871759283 92.73264400964845 C122.97786245209218 63.068467725099836, 90.53368227310627 36.141795496836075, 70.20668264117438 19.23164381853306 M158.92246004764908 94.6326348439442 C133.21084174526783 70.6670048620883, 106.59825203748616 47.90758061140846, 71.22265796002347 17.37625998280012 M167.76684008181718 90.80030451535535 C134.01434520630366 62.25880943731211, 99.24269627520952 33.00936306108404, 77.21805446796171 14.26013501271651 M166.07841819912818 88.98760523467612 C141.07974766813385 66.63735001456534, 114.58679680283967 43.483294319966106, 77.93007637761585 12.269735927731254 M170.30633924244424 81.9934153914858 C152.76930034372535 68.32149444489578, 131.34805965193536 49.767085963711665, 87.39249697345997 9.873358262564032 M171.28716951696654 83.651596857648 C142.0911759986156 56.95869208655812, 109.44459433555988 28.240608708826585, 84.58879636991526 8.441524555767863 M179.830024912005 80.92341110227082 C162.55034476081295 63.231769910201635, 142.90093414343718 45.20246340678377, 91.4337966711964 2.4801959453351046 M178.7624788647347 79.40816331771586 C144.02919132666057 50.23561800147645, 110.0438914935215 18.6650443465073, 91.78126655982393 3.1991898847944285 M187.6666836040267 73.3741740249699 C155.61797738008215 49.54854336742097, 125.82372727444508 21.151788214289013, 97.66453423514376 -2.5577265037297536 M185.7742948653349 73.87736863276419 C157.5519405867144 50.06081622345994, 128.59482051033646 25.362149375092137, 98.16966723068963 -3.2828985093235303" style="stroke: rgb(250, 181, 85); stroke-width: 1px; fill: none;"></path><path d="M96.61859546601772 0.22174014151096344 C125.06234560415149 20.58973908312619, 153.87012716263533 44.79055247791112, 191.7307909578085 72.01032437384129 M95.92237896472216 -0.8449938967823982 C115.49700037285686 15.672812333330512, 136.4940210533142 32.33788453005255, 190.54829186946154 71.59683077782393 M191.38200937211514 71.9744013696909 C157.28764582775534 99.76724299229681, 123.04208400823177 122.92160887680949, 97.80754409730434 142.96112097799778 M190.1697956994176 71.20820658653975 C165.7856345886737 89.65265469662846, 140.67850684396922 109.14242344088854, 96.98144621402025 142.3901969715953 M97.35878692567348 141.0036891847849 C65.07839363984763 120.88833135738969, 33.440464319512245 97.37001352757215, -0.4633742719888687 72.46051682531834 M95.86289877444506 142.98674123734236 C59.4420584885031 115.87433431282639, 23.075878092423082 89.343256188035, -0.7615392729640007 71.73775475472212 M0.8042992204427719 72.32766999304295 C22.393581910133364 54.925154759287835, 41.76452381134034 39.466050501465794, 94.15778194367886 -1.7077966779470444 M-0.434591107070446 71.85267060250044 C23.52347846001387 53.95101405471563, 46.893106865584855 35.840738744437694, 96.01586861163378 -0.006247825920581818" style="stroke: rgb(0, 0, 0); stroke-width: 2px; fill: none;"></path></g><g><g transform="translate(263.29083348030224 75.6381388646364)"><path d="M-0.8494874518364668 0.7912124019116162 C27.31684757061303 8.51574772807459, 141.33579012937844 37.55866855991383, 170.01385267563165 45.28250541500747 M-0.7858958974387498 -0.08086526588536791 C28.165405812272805 8.05063088709178, 144.11861675412396 39.95267165009243, 172.7727504474018 47.63684653117321" style="stroke: rgb(0, 0, 0); stroke-width: 1px; fill: none;"></path></g><g transform="translate(263.29083348030224 75.6381388646364)"><path d="M144.19525126697016 48.48686580923008 C153.20253833573065 49.747723317679814, 167.7884259928956 47.401815615141544, 171.51359155484477 46.77794391102157 M142.95246899177772 50.14365999498027 C151.60547276623484 49.61749231882356, 160.45314081195176 47.96896965341816, 173.51303591010162 47.956416514692826" style="stroke: rgb(0, 0, 0); stroke-width: 1px; fill: none;"></path></g><g transform="translate(263.29083348030224 75.6381388646364)"><path d="M149.58677623651684 28.686576394966607 C156.3445149650963 37.52551848011524, 168.85653342934916 42.79586229434163, 171.51359155484477 46.77794391102157 M148.3439939613244 30.343370580716794 C155.59517326633673 35.71801946798241, 162.84920825289404 39.92208878160514, 173.51303591010162 47.956416514692826" style="stroke: rgb(0, 0, 0); stroke-width: 1px; fill: none;"></path></g></g><g><g transform="translate(176.29083348030224 134.6381388646364)"><path d="M0.3700741052627563 0.6471351385116577 C0.5443414290746053 5.605122860272726, -37.865046032269795 -19.537023695309955, 1.4602710962295533 30.14608609676361 C40.785588224728905 79.82919588883718, 176.49587035973866 293.99146827856697, 236.32197687625884 298.74579389095305 C296.14808339277903 303.50011950333914, 384.7652747074763 129.10873792171478, 360.4169101953506 58.672039771080016 C336.06854568322495 -11.764658379554753, 162.3548857609431 -117.70943351586659, 90.23178980350494 -123.87439501285553 C18.1086938460668 -130.03935650984445, -45.29857772986095 -2.3455981175104803, -72.32166554927826 21.682270789146422 C-99.34475336869558 45.71013969580332, -59.933397014935814 41.1926920334498, -71.90673711299897 20.292818427085876 C-83.88007721106212 -0.6070551792780527, -191.49618667761487 -106.79378181298574, -144.16170613765718 -103.71697084903717 C-96.82722559769948 -100.6401598850886, 150.4914386987686 15.537428259849545, 212.10014612674712 38.75368421077728 C273.70885355472564 61.96994016170501, 229.56619786421456 28.93710350195567, 225.49053843021392 35.580564856529236 C221.41487899621328 42.2240262111028, 194.08980956872304 71.33102516333261, 187.6461895227432 78.61445233821868 C181.2025694767634 85.89787951310475, 186.64899256229398 79.3199744939804, 186.828818154335 79.28112790584564 M-1.3255959051847457 -0.05993917286396022 C-0.4606475625435511 4.881508460243543, -35.832511048515634 -20.070822898348172, 3.7361866837739943 29.787412454485892 C43.30488441606362 79.64564780731996, 176.68454050203164 294.16790690282977, 236.08659048855304 299.0894729441404 C295.4886404750745 304.0110389854511, 384.25410649756594 129.93807733714578, 360.14848660290244 59.31680870234966 C336.04286670823893 -11.304459932446477, 163.81780803183716 -118.05849518915016, 91.45287112057208 -124.63813886463642 C19.087934209307022 -131.21778254012267, -46.69460880140464 -4.3414526031414695, -74.04113486468792 19.83894664943218 C-101.3876609279712 44.01934590200583, -61.38527290840943 40.981438168088594, -72.62628525912761 20.444256650805475 C-83.86729760984579 -0.0929248664776452, -188.8615215287606 -106.34238146921, -141.487208968997 -103.38414245426655 C-94.11289640923343 -100.42590343932311, 150.64743309795855 15.003071557879448, 211.61959009945392 38.19369074046612 C272.5917471009493 61.38430992305278, 228.37383706549804 29.018988655606904, 224.34573303997516 35.75957264125347 C220.31762901445228 42.500156626900036, 193.48806146760782 71.22843623022237, 187.45096594631673 78.6371946543455 C181.41387042502564 86.04595307846864, 187.7586023980379 79.93635568797588, 188.12315991222857 80.21212318599224" style="stroke: rgb(0, 0, 0); stroke-width: 1px; fill: none;"></path></g><g transform="translate(176.29083348030224 134.6381388646364)"><path d="M171.13306714752613 103.26093276790758 C177.93015988987332 96.62932913022954, 181.6413079631537 88.77549422410435, 189.24322619736193 78.93177285850048 M170.96556098917424 103.57116296342988 C174.56076662625475 96.02509753453182, 180.38869830508182 89.81546666058979, 187.6986086040735 80.69592723309994" style="stroke: rgb(0, 0, 0); stroke-width: 1px; fill: none;"></path></g><g transform="translate(176.29083348030224 134.6381388646364)"><path d="M159.9666208940968 86.04377619502617 C170.55663721118975 85.13783186624448, 178.00358236725225 83.04409304073403, 189.24322619736193 78.93177285850048 M159.7991147357449 86.35400639054848 C166.95845928075397 84.08981349353753, 176.25320494711912 83.22554298562667, 187.6986086040735 80.69592723309994" style="stroke: rgb(0, 0, 0); stroke-width: 1px; fill: none;"></path></g></g><g transform="translate(51.29083348030224 57.6381388646364)"><path d="M0 0 C0 0, 0 0, 0 0 M0 0 C0 0, 0 0, 0 0 M-0.30767240521031114 5.9254663803178 C2.3137254459264733 3.7491409309848875, 3.483575293756558 1.7968329311915938, 5.296127361389345 -0.09678393566634119 M0.09353565465194486 6.239723991279595 C1.077580767207428 4.382315657703341, 2.4355952659938946 3.3914215555864953, 5.055165766882247 0.44608761219654613 M0.9728837990294803 12.654041545509873 C2.195215039811579 9.303061129260229, 7.442142859400587 5.284204587966119, 10.395768061232697 1.0186946611001853 M0.36160937557924866 11.426347179382622 C2.7005984730372754 8.144226311938098, 7.084982165517541 4.20908084506869, 10.11339666913165 -0.5307734486565231 M-0.201037452607439 19.881442067120844 C4.604518205134886 14.995917852787677, 7.815458445293888 11.384655118934912, 14.41964823665424 -0.7419051453925931 M-0.771118287048326 17.509482771065706 C4.368962999180093 14.04344549750828, 7.771432205657589 9.47232213528417, 14.377377290337819 0.7972452146477735 M1.1735950423774626 21.226353846508154 C3.9758642544876874 16.840459180780744, 10.023449382018546 13.172349955964236, 14.050880539229626 5.652710758246746 M2.4801969746032113 21.708224315633142 C5.463290577409026 16.530764947620213, 10.50871323983088 12.108025602166753, 15.624196846176424 8.204163387188952 M7.636434802593884 21.303773692625395 C9.34883792214763 20.140652004875726, 11.46501320345324 17.808421633927235, 14.35882066025728 13.410431171355206 M7.748301982268912 22.444403785888856 C9.491571008442312 19.38974939592837, 11.908089416029851 16.842278078784688, 14.188723661548957 14.158206521912847" style="stroke: rgb(0, 0, 0); stroke-width: 0.5px; fill: none;"></path><path d="M-0.9701375561766327 -0.909974202234298 C2.6948683843016625 0.7010142436157911, 7.660708694439381 -0.22169008051045244, 14.081109924335033 -0.9428424236364663 M-0.6357721595559269 -0.2579139241483063 C5.290336081245915 0.11676069725304838, 10.175199958262967 0.523147053308785, 12.9442558364477 0.1734811669681221 M13.001555802300572 -0.8998671490699053 C11.378933199308813 6.139935251325369, 13.019743152521551 10.167681301012635, 11.822362126782537 18.242221919819713 M12.056718929670751 0.879454136826098 C13.105704836919903 4.356551739387214, 12.333417021110654 9.545686428435147, 13.328264906071126 19.6752809593454 M12.675602958817034 20.830425057094544 C11.0145858803764 19.565124678323045, 7.359096775110811 21.05331226856448, -0.8710444199852645 21.014802891295403 M13.081222075363621 19.870799877354877 C9.630514076771213 20.470236336123197, 7.801205147011205 19.702577797006814, 0.05659490092657504 20.592462626704947 M-0.294391630217433 21.421617774292827 C-1.141438548080623 14.82239454984665, -1.7154914183542131 6.521051498129964, -1.2627050261944532 -0.03431943245232105 M0.4815776785835624 20.23612290713936 C-0.1933228738605976 15.3369722655043, -0.2722112603485584 9.948992011137305, -0.5631624320521951 -0.4137575915083289" style="stroke: rgb(0, 0, 0); stroke-width: 1px; fill: none;"></path></g><g transform="translate(336.29083348030224 376.6381388646364)"><path d="M19.25167213210195 14.085197278524843 C19.25167213210195 14.085197278524843, 19.25167213210195 14.085197278524843, 19.25167213210195 14.085197278524843 M19.25167213210195 14.085197278524843 C19.25167213210195 14.085197278524843, 19.25167213210195 14.085197278524843, 19.25167213210195 14.085197278524843 M7.017607606876918 38.75854037330062 C16.616674998594743 31.880027281471293, 23.976868989735884 19.571385071247743, 36.43921174641831 6.907551030968447 M6.0596579852740255 39.57235598005862 C13.120673171595403 31.770101112455414, 20.772616315751428 23.957080862435788, 37.02074453953786 6.077007704754491 M7.966817941548541 51.07078390089143 C20.266713309880785 39.25278042475438, 29.462148750276302 26.923225772237007, 50.57970488025805 1.2696376205625661 M6.668959541278198 52.14794445117283 C18.887584532821883 37.949768747116096, 33.12430584680137 24.027448090835144, 50.691890494441594 2.581419874468697 M6.281212824009504 64.82623578649189 C29.13156898781063 39.411959052531884, 46.900715064162654 17.217310904629564, 61.76457580426607 1.0726213094132433 M7.652969036795344 62.8703831717762 C20.77170021906609 50.2699856438783, 33.1907438320202 34.781150856321936, 60.824957650768496 2.764733827887703 M12.42968603202484 69.09595262117564 C32.540253157027045 44.26558945070738, 56.91871316736698 21.888059913602213, 71.98224954620741 2.680527438594112 M11.645924487871746 70.14245480716109 C31.84656074326178 48.178275799909414, 50.77441336068752 27.164710246253172, 72.26316839956485 2.9144978553038925 M18.0588223034545 75.07230554824405 C39.80222134397766 51.464235915656225, 63.837294142108405 25.489809759607766, 82.1162552968756 4.170728839847136 M18.071082995648606 76.90817844984763 C34.98728089253852 57.236724848289825, 50.660052441907155 40.21348100320598, 81.66867741990542 3.13902961267798 M24.646664713129994 84.13275572033012 C39.51620067269759 61.839345488869334, 58.22581815778388 40.214720980607936, 88.13387223614956 7.7372033169192065 M22.60698812323868 82.90408507668758 C48.133192336708134 52.06027044452905, 75.11739511690946 22.939793708717254, 88.52371750495041 7.958173602975606 M30.90800981780685 85.9413063982848 C54.51141743635003 61.52813211154992, 73.16971833100982 35.48417322808542, 96.95654622876587 11.452503720215667 M31.40526504067875 86.94816964775062 C57.51486118367829 55.804337352166385, 82.81549693833094 26.510510346580084, 97.81351625771764 10.252771250820864 M39.798227076354536 91.41769455563214 C56.69594674082218 70.55186455824301, 72.07521130765447 50.84014845115232, 106.18341409955602 14.010497452369535 M38.90693994511953 90.09658271077957 C63.18989560220089 61.55713273637754, 88.82299604285006 31.677028072278176, 104.56232036631982 12.194900408065521 M47.75943942956654 91.51819927411414 C71.11968422773495 60.554330343143675, 99.1459058957349 30.48649235084482, 113.40113003931349 14.035432345122793 M45.90112064063577 92.61193879673517 C71.3898045915735 63.92727228671322, 94.92000250988991 36.41786933019718, 113.95572200983172 14.744441230670311 M52.97281495227436 96.16715670636383 C71.16780950287982 78.52462468321997, 86.40484500932752 56.44132103881309, 118.46798016993623 23.27758036266787 M52.5897881903402 97.0823313824692 C68.60555764815355 77.83644341713696, 85.41376333808157 61.04182337837341, 118.43727342343252 21.032219882046412 M62.70021617224306 95.83015469345486 C86.19717511757472 70.46128644062925, 110.31770636983194 41.6232247156429, 126.00853535616083 27.356369355410095 M62.741946235279144 98.18202750827407 C75.17446255862464 82.41366360298282, 89.8019325752181 66.33290467092118, 125.01563971014006 27.290640286817904 M75.56831463531358 98.70967646824305 C85.75428946670408 83.14620516909093, 100.5552398624746 66.24600763333046, 127.82505742281873 36.01254172598252 M74.7902355595748 98.05461148122434 C85.1627713000691 84.0272389618614, 97.3094798204994 70.44583231436165, 128.48850505806703 33.29334279683659 M85.56629925328895 95.5635856926931 C99.36242207774899 79.040901406841, 111.52167826158322 62.96835357498023, 136.863384589694 37.66251072590432 M86.64114243831142 95.31896991250346 C97.68023283438771 82.35984001111697, 110.23538290612055 68.73381771208125, 134.22095817527875 39.09706048784039 M102.82693533292472 88.82541687765591 C113.247402691819 77.5847218845697, 123.06611789530072 68.64397464657365, 133.5606918627225 53.12226164025905 M103.26855766652584 88.37708213718109 C112.13824676685869 78.62017199191176, 118.47154513777956 70.91578681030342, 133.30575268099236 52.95302034413161 M19.31276923037557 79.90815723071549 C19.31276923037557 79.90815723071549, 19.31276923037557 79.90815723071549, 19.31276923037557 79.90815723071549 M19.31276923037557 79.90815723071549 C19.31276923037557 79.90815723071549, 19.31276923037557 79.90815723071549, 19.31276923037557 79.90815723071549 M43.16733057322062 92.14575624495396 C30.798739368852715 78.81046339716737, 21.93496232403651 69.33565302167925, 3.4762477452946 58.32105255488261 M43.74272444555617 90.98336775444099 C29.009009733302 77.14521335680243, 13.664486957463826 63.38601163737465, 5.755321954105526 57.51218606706664 M53.988123637357475 85.95653182495995 C42.92473520437707 79.4765241584749, 32.1743112815504 70.16225586439826, 5.4983879378226455 47.520117559219315 M52.94440150141132 88.44530756813153 C39.82600969043235 77.40844785136883, 28.738692269007 66.72874232993294, 5.7292861560520585 45.20800971121581 M66.51510086359451 89.3325566209634 C49.99533974608418 75.93116032429273, 38.79226673606638 65.40222453889123, 3.8880300064267512 34.33233053529793 M66.21890281030903 87.55632647758026 C44.06840890697612 69.26939460420533, 23.8913372980606 51.81757856311072, 4.999709219548285 34.19962712483638 M82.64549879518978 91.91883443313283 C65.4706693698445 77.50229686789856, 50.27122850856288 62.6871488916067, 9.465199225701584 28.75701820723002 M83.11123102878861 93.27948248217446 C59.73581478730999 72.66943365837213, 35.878629408509596 51.94168778484142, 8.41133565747012 27.708716106258677 M92.5315148802776 90.97023014485507 C68.69443292880132 72.08885074062985, 46.07779571420783 51.52107722733784, 13.222267997123016 23.182899643260036 M91.22017784326562 89.42011653951971 C64.83204871552167 65.55041873671453, 39.672967145656145 43.454729435308636, 14.092585234574688 22.26626867294589 M99.23317270501198 83.93395243317525 C75.70347140011413 63.311097485100404, 50.975357435464396 42.43033262407918, 20.033728293058005 14.072148777594471 M99.66368920317532 85.3958352758799 C71.02273804041113 61.2302539379627, 43.22826439153968 35.93054413787545, 17.977825411510196 15.584153583323264 M107.5984238219827 84.20948426129034 C89.291647119936 65.21355603591441, 72.68504444385468 52.793276448600274, 24.781191656764594 7.8353944104018325 M106.77146714938876 82.18394147867075 C85.3914602662274 62.47217961260182, 61.31775674839335 42.042000911699624, 22.744871344815937 8.617616336778056 M115.70879145355671 76.86446831340685 C89.50858478847817 56.85651146080606, 63.068342517646926 34.03912228976147, 30.214260461723605 4.738543120841149 M114.3431135175541 78.2248195313175 C82.47520423548644 50.16866595302825, 52.22645709745882 24.04453774711427, 32.48835714625398 5.659602086688045 M121.26849923254652 70.47788408171226 C98.31273299184822 53.66531820387718, 72.57394221006756 33.0537884626029, 41.03785126985644 3.529307035137883 M118.84975867876513 71.4526125002264 C93.798502855155 48.00809399988262, 67.2142045892569 25.92398948835553, 39.619559241026984 3.154783408497444 M125.72947120221014 67.01504786637508 C101.91357925813261 46.50676350812549, 80.66327292986902 26.831456626037607, 50.603128954643914 0.4970302324510598 M124.3715615395611 65.3577221347847 C94.89822686951861 40.672091426850216, 67.52453385445394 14.128553777451572, 50.36983049089701 0.9468867055840278 M131.3974934953601 61.07837665958284 C102.89410819603606 38.43608992799554, 78.13197380875464 15.904636409473866, 61.485410898898536 0.7870984549681808 M130.5163712210358 58.425072751398666 C115.96212025019715 46.43189745537126, 101.60155376269975 34.642282068446974, 64.18100439195781 1.7806019193540479 M130.53837601347223 51.158152029579966 C117.52686626896727 35.96496575031311, 102.2407683937576 27.098313832438897, 77.6091669947645 0.2759391079052236 M130.3383887379463 49.57237511753151 C118.1786731685785 38.33286940847002, 106.50094787489348 28.686189493694776, 76.64289507463484 1.364082529242232 M131.0877248706957 41.31658264249702 C115.32579666499518 25.504694423315915, 103.39346470383623 14.62490259654448, 85.88243880416317 0.758139317487661 M130.86043944272302 40.02168897353251 C119.56959861775766 27.625764501924223, 105.28237535098998 16.695658454717954, 85.94021646413071 -0.25643638930719703" style="stroke: rgb(230, 73, 128); stroke-width: 1px; fill: none;"></path><path d="M51.00694910092939 1.479249613157073 C60.94123293743574 -0.6786038212312504, 73.5190405925 0.4860064705494054, 83.9432332823406 2.5904201705219876 C94.3674259721812 4.69483387049457, 105.76691689503383 8.606715560590985, 113.55210523997296 14.105731812992566 C121.33729358491209 19.604748065394148, 128.04988908501113 27.90497248592665, 130.6543633519754 35.58451768493148 C133.25883761893968 43.264062883936305, 132.20401549982688 52.7888996337553, 129.17895084175856 60.183003007021526 C126.15388618369023 67.57710638028774, 120.26545297270255 74.42469748626024, 112.50397540356542 79.94913792452883 C104.74249783442829 85.47357836279741, 93.35154193631841 91.24772011493124, 82.61008542693584 93.32964563663302 C71.86862891755327 95.4115711583348, 58.64160192293064 94.70960673415009, 48.05523634727001 92.44069105473949 C37.46887077160938 90.17177537532889, 26.688643476992716 85.17089378005095, 19.091891972972057 79.71615156016941 C11.495140468951398 74.26140934028787, 5.225237235022885 66.98650467311464, 2.4747273231460625 59.71223773545027 C-0.27578258873075967 52.43797079778591, -0.2393081872577114 43.71184916378455, 2.5888325017111242 36.0705499341832 C5.416973190679959 28.429250704581847, 11.900362511058717 19.590063642012744, 19.443571456959077 13.864442357842165 C26.986780402859438 8.138821073671586, 40.20315702131928 3.9058541995291023, 47.84808617711329 1.7168222291597175 C55.4930153329073 -0.4722097412096673, 59.92755553909331 0.776895644763588, 65.31314639172312 0.7302505356258564 C70.69873724435294 0.6836054264881248, 80.06881868048505 0.6266843324148444, 80.16163129289215 1.436951574333328 M41.77345906237874 4.942277193233245 C50.724027058068565 1.5955824984190161, 61.71430760634781 0.7149594282600896, 72.51921911603426 1.4653700020399398 C83.32413062572073 2.21578057581979, 97.7388210477748 4.7335121667802325, 106.6029281204975 9.444740635912346 C115.46703519322018 14.15596910504446, 121.75298581258814 22.428896577427686, 125.70386155237038 29.732740816832624 C129.65473729215262 37.03658505623756, 131.2747677904818 45.525807830474385, 130.30818255919098 53.267806072341976 C129.34159732790016 61.00980431420957, 126.1131886973413 69.8507211842812, 119.90435016462538 76.18473026803817 C113.69551163190947 82.51873935179513, 103.33040416472483 88.24739180261162, 93.05515136289547 91.27186057488379 C82.77989856106612 94.29632934715596, 68.96436525872282 95.53922630456208, 58.25283335364931 94.33154290167124 C47.541301448575794 93.1238594987804, 37.643392061095845 88.59348568982277, 28.78595993245439 84.02576015753878 C19.928527803812933 79.4580346252548, 10.017330120479912 73.64768576314462, 5.108240581800587 66.92518970796733 C0.19915104312126175 60.202693652790046, -1.8891196012469607 51.75387834296623, -0.6685772996215604 43.69078382647504 C0.5519650020038398 35.62768930998385, 6.225296211684831 24.93001841090862, 12.431494391552988 18.546622609020204 C18.637692571421145 12.163226807131789, 32.05019644132137 7.727110717016773, 36.568611779587386 5.390409015144549 C41.0870271178534 3.0537073132723243, 38.77110099327594 4.435476363470506, 39.5419864211491 4.5264123977868564 C40.31287184902226 4.617348432103207, 40.479219808556564 5.338256352430778, 41.19392434682634 5.936025221042655" style="stroke: rgb(0, 0, 0); stroke-width: 2px; fill: none;"></path></g><g><g transform="translate(99.29083348030224 165.6381388646364)"><path d="M0.7887850038707256 -0.5590781562030315 C-13.718612067649762 48.21021581167976, -72.51746841346224 242.74888043080765, -87.26167807653546 291.53756755664944 M1.816096853669733 0.4912234916724265 C-13.328982432230063 49.692347155852865, -74.05789380087828 244.86500447138522, -89.29083348030224 293.67707233035935" style="stroke: rgb(0, 0, 0); stroke-width: 2px; fill: none;"></path></g></g></svg>